# xmcd
#
# Track frame offsets:
#	150
#	16783
#	33420
#	48577
#	64033
#	82751
#	97398
#	112420
#	123749
#	135700
#	150333
#	166057
#
# Disc length: 2431 seconds
#
# Revision: 1
# Processed by: cddbd v1.5.2PL0 Copyright (c) Steve Scherf et al.
# Submitted via: audiograbber 1.83.01
#
DISCID=9b097d0c
DTITLE=Various Artist - #1 80's Country Hits
DYEAR=2006
DGENRE=Country
TTITLE0=The Oak Ridge Boys - Elvira
TTITLE1=Waylon Jennings - Rose in paradise
TTITLE2=Kathy Mattea - Eighteen wheels and a dozen roses
TTITLE3=The Startler Brothers - Elizabeth
TTITLE4=Don Williams - Lord, I hope this day is good
TTITLE5=Lee Greenwood - Dixie Road
TTITLE6=Conway Twitty - Id just love to lay you down
TTITLE7=Patty Loveless - Timber I'm falling in love
TTITLE8=Gene Watson - Fourteen Corat mind
TTITLE9=Steve Wariner - Life's highway
TTITLE10=Ed Bruce - You're the best break this old heart ever had
TTITLE11=The Oak Ridge Boys - Fancy free
EXTD=
EXTT0=
EXTT1=
EXTT2=
EXTT3=
EXTT4=
EXTT5=
EXTT6=
EXTT7=
EXTT8=
EXTT9=
EXTT10=
EXTT11=
PLAYORDER=
